<svg xmlns="http://www.w3.org/2000/svg" xmlns:xlink="http://www.w3.org/1999/xlink" width="40" zoomAndPan="magnify" viewBox="0 0 30 30.000001" height="40" preserveAspectRatio="xMidYMid meet" version="1.0"><defs><clipPath id="7543c2469c"><path d="M 3.894531 0.214844 L 26.394531 0.214844 L 26.394531 28.519531 L 3.894531 28.519531 Z M 3.894531 0.214844 " clip-rule="nonzero"/></clipPath></defs><g clip-path="url(#7543c2469c)"><path fill="#B76E79" d="M 15.023438 0.234375 C 12.496094 0.234375 10.445312 2.007812 10.445312 4.175781 L 10.445312 7.226562 L 7.210938 7.226562 C 7.085938 7.226562 6.980469 7.261719 6.886719 7.339844 C 6.792969 7.417969 6.738281 7.515625 6.714844 7.636719 L 3.980469 26.980469 C 3.945312 27.207031 3.960938 27.433594 4.023438 27.652344 C 4.089844 27.875 4.199219 28.074219 4.347656 28.246094 C 4.5 28.421875 4.679688 28.554688 4.890625 28.652344 C 5.097656 28.746094 5.320312 28.792969 5.550781 28.792969 L 24.496094 28.792969 C 24.726562 28.792969 24.945312 28.746094 25.15625 28.652344 C 25.367188 28.554688 25.546875 28.421875 25.695312 28.246094 C 25.847656 28.074219 25.957031 27.875 26.019531 27.652344 C 26.085938 27.433594 26.101562 27.207031 26.066406 26.980469 L 23.308594 7.621094 C 23.289062 7.5 23.230469 7.402344 23.136719 7.324219 C 23.046875 7.246094 22.9375 7.210938 22.816406 7.210938 L 19.601562 7.210938 L 19.601562 4.175781 C 19.601562 2.007812 17.546875 0.234375 15.023438 0.234375 Z M 11.398438 7.226562 L 11.398438 4.175781 C 11.398438 2.519531 13.023438 1.175781 15.023438 1.175781 C 17.023438 1.175781 18.644531 2.53125 18.644531 4.175781 L 18.644531 7.226562 Z M 11.398438 7.226562 " fill-opacity="1" fill-rule="nonzero"/></g></svg>