<svg xmlns="http://www.w3.org/2000/svg" xmlns:xlink="http://www.w3.org/1999/xlink" width="40" zoomAndPan="magnify" viewBox="0 0 30 30.000001" height="40" preserveAspectRatio="xMidYMid meet" version="1.0"><defs><clipPath id="0434f5758a"><path d="M 1.371094 0.574219 L 25 0.574219 L 25 24 L 1.371094 24 Z M 1.371094 0.574219 " clip-rule="nonzero"/></clipPath><clipPath id="a28f91f1ac"><path d="M 18 18 L 28.949219 18 L 28.949219 28.152344 L 18 28.152344 Z M 18 18 " clip-rule="nonzero"/></clipPath></defs><g clip-path="url(#0434f5758a)"><path fill="#B76E79" d="M 12.75 23.363281 C 12.003906 23.363281 11.265625 23.289062 10.53125 23.144531 C 9.796875 23 9.085938 22.78125 8.394531 22.496094 C 7.707031 22.210938 7.050781 21.859375 6.429688 21.445312 C 5.808594 21.03125 5.230469 20.558594 4.703125 20.027344 C 4.175781 19.5 3.703125 18.925781 3.289062 18.304688 C 2.875 17.683594 2.523438 17.027344 2.238281 16.335938 C 1.949219 15.644531 1.734375 14.933594 1.589844 14.203125 C 1.441406 13.46875 1.371094 12.730469 1.371094 11.980469 C 1.371094 11.234375 1.441406 10.492188 1.589844 9.761719 C 1.734375 9.027344 1.949219 8.316406 2.238281 7.625 C 2.523438 6.9375 2.875 6.28125 3.289062 5.660156 C 3.703125 5.035156 4.175781 4.460938 4.703125 3.933594 C 5.230469 3.40625 5.808594 2.933594 6.429688 2.519531 C 7.050781 2.101562 7.707031 1.753906 8.394531 1.464844 C 9.085938 1.179688 9.796875 0.964844 10.53125 0.820312 C 11.265625 0.671875 12.003906 0.601562 12.75 0.601562 C 13.5 0.601562 14.238281 0.671875 14.972656 0.820312 C 15.703125 0.964844 16.417969 1.179688 17.105469 1.464844 C 17.796875 1.753906 18.453125 2.101562 19.074219 2.519531 C 19.695312 2.933594 20.269531 3.40625 20.800781 3.933594 C 21.328125 4.460938 21.800781 5.035156 22.214844 5.660156 C 22.628906 6.28125 22.980469 6.9375 23.265625 7.625 C 23.550781 8.316406 23.769531 9.027344 23.914062 9.761719 C 24.058594 10.492188 24.132812 11.234375 24.132812 11.980469 C 24.132812 12.730469 24.058594 13.46875 23.914062 14.203125 C 23.769531 14.933594 23.550781 15.644531 23.265625 16.335938 C 22.980469 17.027344 22.628906 17.683594 22.214844 18.304688 C 21.800781 18.925781 21.328125 19.5 20.800781 20.027344 C 20.269531 20.558594 19.695312 21.03125 19.074219 21.445312 C 18.453125 21.859375 17.796875 22.210938 17.105469 22.496094 C 16.417969 22.78125 15.703125 23 14.972656 23.144531 C 14.238281 23.289062 13.5 23.363281 12.75 23.363281 Z M 12.75 3.128906 C 12.171875 3.128906 11.59375 3.1875 11.023438 3.300781 C 10.453125 3.414062 9.902344 3.582031 9.363281 3.804688 C 8.828125 4.027344 8.316406 4.296875 7.832031 4.621094 C 7.351562 4.945312 6.902344 5.3125 6.492188 5.722656 C 6.082031 6.132812 5.714844 6.582031 5.390625 7.0625 C 5.070312 7.546875 4.796875 8.058594 4.574219 8.59375 C 4.351562 9.128906 4.183594 9.683594 4.070312 10.253906 C 3.957031 10.824219 3.898438 11.398438 3.898438 11.980469 C 3.898438 12.5625 3.957031 13.136719 4.070312 13.707031 C 4.183594 14.277344 4.351562 14.832031 4.574219 15.367188 C 4.796875 15.90625 5.070312 16.417969 5.390625 16.898438 C 5.714844 17.382812 6.082031 17.828125 6.492188 18.242188 C 6.902344 18.652344 7.351562 19.019531 7.832031 19.339844 C 8.316406 19.664062 8.828125 19.9375 9.363281 20.160156 C 9.902344 20.382812 10.453125 20.550781 11.023438 20.664062 C 11.59375 20.777344 12.171875 20.832031 12.75 20.832031 C 13.332031 20.832031 13.910156 20.777344 14.480469 20.664062 C 15.046875 20.550781 15.601562 20.382812 16.140625 20.160156 C 16.675781 19.9375 17.1875 19.664062 17.667969 19.339844 C 18.152344 19.019531 18.601562 18.652344 19.011719 18.242188 C 19.421875 17.828125 19.789062 17.382812 20.113281 16.898438 C 20.433594 16.417969 20.707031 15.90625 20.929688 15.367188 C 21.152344 14.832031 21.320312 14.277344 21.433594 13.707031 C 21.546875 13.136719 21.605469 12.5625 21.605469 11.980469 C 21.605469 11.398438 21.546875 10.824219 21.433594 10.253906 C 21.320312 9.683594 21.152344 9.128906 20.929688 8.59375 C 20.707031 8.058594 20.433594 7.546875 20.113281 7.0625 C 19.789062 6.582031 19.421875 6.132812 19.011719 5.722656 C 18.601562 5.3125 18.152344 4.945312 17.667969 4.621094 C 17.1875 4.296875 16.675781 4.027344 16.140625 3.804688 C 15.601562 3.582031 15.046875 3.414062 14.480469 3.300781 C 13.910156 3.1875 13.332031 3.128906 12.75 3.128906 Z M 12.75 3.128906 " fill-opacity="1" fill-rule="nonzero"/></g><g clip-path="url(#a28f91f1ac)"><path fill="#B76E79" d="M 27.25 28.421875 C 26.902344 28.417969 26.605469 28.296875 26.359375 28.046875 L 18.707031 20.398438 C 18.589844 20.277344 18.5 20.140625 18.433594 19.988281 C 18.371094 19.832031 18.335938 19.671875 18.339844 19.503906 C 18.339844 19.335938 18.371094 19.171875 18.433594 19.019531 C 18.5 18.863281 18.589844 18.726562 18.707031 18.609375 C 18.828125 18.488281 18.964844 18.398438 19.117188 18.335938 C 19.273438 18.269531 19.433594 18.238281 19.601562 18.238281 C 19.769531 18.238281 19.933594 18.269531 20.085938 18.332031 C 20.242188 18.398438 20.378906 18.488281 20.496094 18.609375 L 28.148438 26.257812 C 28.332031 26.4375 28.445312 26.65625 28.496094 26.90625 C 28.546875 27.160156 28.523438 27.402344 28.425781 27.640625 C 28.328125 27.878906 28.171875 28.066406 27.957031 28.210938 C 27.742188 28.351562 27.507812 28.421875 27.25 28.421875 Z M 27.25 28.421875 " fill-opacity="1" fill-rule="nonzero"/></g></svg>