<svg xmlns="http://www.w3.org/2000/svg" xmlns:xlink="http://www.w3.org/1999/xlink" width="40" zoomAndPan="magnify" viewBox="0 0 30 30.000001" height="40" preserveAspectRatio="xMidYMid meet" version="1.0"><defs><clipPath id="70aab03847"><path d="M 2.546875 15 L 27.226562 15 L 27.226562 28.300781 L 2.546875 28.300781 Z M 2.546875 15 " clip-rule="nonzero"/></clipPath><clipPath id="c5aeca43ca"><path d="M 7 0.71875 L 23 0.71875 L 23 16 L 7 16 Z M 7 0.71875 " clip-rule="nonzero"/></clipPath><clipPath id="b85c483e31"><path d="M 10.644531 3.914062 L 19.355469 3.914062 L 19.355469 12.621094 L 10.644531 12.621094 Z M 10.644531 3.914062 " clip-rule="nonzero"/></clipPath><clipPath id="8c1b947965"><path d="M 15 3.914062 C 12.59375 3.914062 10.644531 5.863281 10.644531 8.265625 C 10.644531 10.671875 12.59375 12.621094 15 12.621094 C 17.40625 12.621094 19.355469 10.671875 19.355469 8.265625 C 19.355469 5.863281 17.40625 3.914062 15 3.914062 Z M 15 3.914062 " clip-rule="nonzero"/></clipPath><clipPath id="7c223fbdcc"><path d="M 0.644531 0.914062 L 9.355469 0.914062 L 9.355469 9.621094 L 0.644531 9.621094 Z M 0.644531 0.914062 " clip-rule="nonzero"/></clipPath><clipPath id="f4449dd0b9"><path d="M 5 0.914062 C 2.59375 0.914062 0.644531 2.863281 0.644531 5.265625 C 0.644531 7.671875 2.59375 9.621094 5 9.621094 C 7.40625 9.621094 9.355469 7.671875 9.355469 5.265625 C 9.355469 2.863281 7.40625 0.914062 5 0.914062 Z M 5 0.914062 " clip-rule="nonzero"/></clipPath><clipPath id="c587c14c7a"><rect x="0" width="10" y="0" height="10"/></clipPath></defs><g clip-path="url(#70aab03847)"><path fill="#B76E79" d="M 20.488281 15.359375 C 18.894531 16.527344 16.972656 17.160156 15 17.164062 C 13.023438 17.160156 11.101562 16.527344 9.507812 15.359375 C 5.636719 15.796875 2.65625 18.894531 2.65625 22.671875 L 2.65625 25.542969 C 2.65625 27.550781 3.636719 28.296875 5.359375 28.28125 L 24.640625 28.28125 C 26.363281 28.296875 27.34375 27.550781 27.34375 25.542969 L 27.34375 22.671875 C 27.34375 18.890625 24.359375 15.796875 20.488281 15.359375 Z M 20.488281 15.359375 " fill-opacity="1" fill-rule="nonzero"/></g><g clip-path="url(#c5aeca43ca)"><path fill="#B76E79" d="M 15 0.707031 C 13.101562 0.707031 11.285156 1.460938 9.941406 2.800781 C 8.601562 4.144531 7.847656 5.960938 7.847656 7.859375 C 7.847656 9.753906 8.601562 11.574219 9.941406 12.914062 C 11.285156 14.257812 13.101562 15.011719 15 15.011719 C 16.898438 15.011719 18.714844 14.257812 20.058594 12.914062 C 21.398438 11.574219 22.152344 9.753906 22.152344 7.859375 C 22.152344 5.960938 21.398438 4.144531 20.058594 2.800781 C 18.714844 1.460938 16.898438 0.707031 15 0.707031 Z M 15 0.707031 " fill-opacity="1" fill-rule="nonzero"/></g><g clip-path="url(#b85c483e31)"><g clip-path="url(#8c1b947965)"><g transform="matrix(1, 0, 0, 1, 10, 3)"><g clip-path="url(#c587c14c7a)"><g clip-path="url(#7c223fbdcc)"><g clip-path="url(#f4449dd0b9)"><path fill="#B76E79" d="M 0.644531 0.914062 L 9.355469 0.914062 L 9.355469 9.621094 L 0.644531 9.621094 Z M 0.644531 0.914062 " fill-opacity="1" fill-rule="nonzero"/></g></g></g></g></g></g></svg>